<mxfile host="app.diagrams.net" modified="2023-11-23T11:17:12.506Z" agent="Mozilla/5.0 (Windows NT 10.0; Win64; x64) AppleWebKit/537.36 (KHTML, like Gecko) Chrome/119.0.0.0 Safari/537.36" etag="Ax7ymQp0M-eey2rhncf_" version="22.1.3" type="google">
  <diagram name="第 1 页" id="YnDeQ1BgcJSVogL_JSSt">
    <mxGraphModel grid="1" page="1" gridSize="10" guides="1" tooltips="1" connect="1" arrows="1" fold="1" pageScale="1" pageWidth="827" pageHeight="1169" math="0" shadow="0">
      <root>
        <mxCell id="0" />
        <mxCell id="1" parent="0" />
        <mxCell id="81sYN-KSDIxfuRmOclKb-1" value="" style="rounded=0;whiteSpace=wrap;html=1;fillColor=#e1d5e7;strokeColor=#9673a6;" vertex="1" parent="1">
          <mxGeometry x="120" y="290" width="640" height="40" as="geometry" />
        </mxCell>
        <mxCell id="81sYN-KSDIxfuRmOclKb-2" value="" style="rounded=0;whiteSpace=wrap;html=1;fillColor=#dae8fc;strokeColor=#6c8ebf;" vertex="1" parent="1">
          <mxGeometry x="120" y="130" width="640" height="40" as="geometry" />
        </mxCell>
        <mxCell id="81sYN-KSDIxfuRmOclKb-3" value="" style="endArrow=none;dashed=1;html=1;dashPattern=1 3;strokeWidth=2;rounded=0;" edge="1" parent="1">
          <mxGeometry width="50" height="50" relative="1" as="geometry">
            <mxPoint x="310" y="410" as="sourcePoint" />
            <mxPoint x="310" y="50" as="targetPoint" />
          </mxGeometry>
        </mxCell>
        <mxCell id="81sYN-KSDIxfuRmOclKb-4" value="TURN&lt;br&gt;Chain" style="text;html=1;strokeColor=none;fillColor=none;align=center;verticalAlign=middle;whiteSpace=wrap;rounded=0;" vertex="1" parent="1">
          <mxGeometry x="130" y="295" width="60" height="30" as="geometry" />
        </mxCell>
        <mxCell id="81sYN-KSDIxfuRmOclKb-5" value="ROS&lt;br&gt;Chain" style="text;html=1;strokeColor=none;fillColor=none;align=center;verticalAlign=middle;whiteSpace=wrap;rounded=0;" vertex="1" parent="1">
          <mxGeometry x="130" y="135" width="60" height="30" as="geometry" />
        </mxCell>
        <mxCell id="81sYN-KSDIxfuRmOclKb-6" value="DApp" style="rounded=1;whiteSpace=wrap;html=1;fillColor=#d5e8d4;strokeColor=#82b366;" vertex="1" parent="1">
          <mxGeometry x="120" y="430" width="120" height="40" as="geometry" />
        </mxCell>
        <mxCell id="81sYN-KSDIxfuRmOclKb-7" value="Same Timestamp" style="text;html=1;strokeColor=none;fillColor=none;align=center;verticalAlign=middle;whiteSpace=wrap;rounded=0;" vertex="1" parent="1">
          <mxGeometry x="280" y="20" width="60" height="30" as="geometry" />
        </mxCell>
        <mxCell id="81sYN-KSDIxfuRmOclKb-8" value="Block 80" style="text;html=1;strokeColor=none;fillColor=none;align=center;verticalAlign=middle;whiteSpace=wrap;rounded=0;" vertex="1" parent="1">
          <mxGeometry x="210" y="80" width="60" height="30" as="geometry" />
        </mxCell>
        <mxCell id="81sYN-KSDIxfuRmOclKb-9" value="Block 20" style="text;html=1;strokeColor=none;fillColor=none;align=center;verticalAlign=middle;whiteSpace=wrap;rounded=0;" vertex="1" parent="1">
          <mxGeometry x="210" y="240" width="60" height="30" as="geometry" />
        </mxCell>
        <mxCell id="81sYN-KSDIxfuRmOclKb-11" value="" style="endArrow=classic;html=1;rounded=0;dashed=1;exitX=1;exitY=0.75;exitDx=0;exitDy=0;" edge="1" parent="1" source="81sYN-KSDIxfuRmOclKb-8">
          <mxGeometry width="50" height="50" relative="1" as="geometry">
            <mxPoint x="270" y="160" as="sourcePoint" />
            <mxPoint x="310" y="130" as="targetPoint" />
          </mxGeometry>
        </mxCell>
        <mxCell id="81sYN-KSDIxfuRmOclKb-12" value="" style="endArrow=classic;html=1;rounded=0;dashed=1;exitX=1;exitY=0.75;exitDx=0;exitDy=0;" edge="1" parent="1" source="81sYN-KSDIxfuRmOclKb-9">
          <mxGeometry width="50" height="50" relative="1" as="geometry">
            <mxPoint x="270" y="320" as="sourcePoint" />
            <mxPoint x="310" y="290" as="targetPoint" />
          </mxGeometry>
        </mxCell>
        <mxCell id="81sYN-KSDIxfuRmOclKb-13" value="" style="endArrow=classic;html=1;rounded=0;exitX=0.75;exitY=0;exitDx=0;exitDy=0;" edge="1" parent="1" source="81sYN-KSDIxfuRmOclKb-6">
          <mxGeometry width="50" height="50" relative="1" as="geometry">
            <mxPoint x="280" y="273" as="sourcePoint" />
            <mxPoint x="310" y="330" as="targetPoint" />
          </mxGeometry>
        </mxCell>
        <mxCell id="81sYN-KSDIxfuRmOclKb-14" value="Get an Random Number that Points to the Future" style="text;html=1;strokeColor=none;fillColor=none;align=center;verticalAlign=middle;whiteSpace=wrap;rounded=0;" vertex="1" parent="1">
          <mxGeometry x="130" y="360" width="120" height="40" as="geometry" />
        </mxCell>
        <mxCell id="81sYN-KSDIxfuRmOclKb-15" value="" style="endArrow=classic;html=1;rounded=0;exitX=0.75;exitY=0;exitDx=0;exitDy=0;entryX=0.548;entryY=1.025;entryDx=0;entryDy=0;entryPerimeter=0;" edge="1" parent="1" target="81sYN-KSDIxfuRmOclKb-2">
          <mxGeometry width="50" height="50" relative="1" as="geometry">
            <mxPoint x="310" y="330" as="sourcePoint" />
            <mxPoint x="410" y="230" as="targetPoint" />
          </mxGeometry>
        </mxCell>
        <mxCell id="81sYN-KSDIxfuRmOclKb-16" value="Block 100" style="text;html=1;strokeColor=none;fillColor=none;align=center;verticalAlign=middle;whiteSpace=wrap;rounded=0;" vertex="1" parent="1">
          <mxGeometry x="370" y="80" width="60" height="30" as="geometry" />
        </mxCell>
        <mxCell id="81sYN-KSDIxfuRmOclKb-17" value="" style="endArrow=classic;html=1;rounded=0;dashed=1;exitX=1;exitY=0.75;exitDx=0;exitDy=0;" edge="1" parent="1" source="81sYN-KSDIxfuRmOclKb-16">
          <mxGeometry width="50" height="50" relative="1" as="geometry">
            <mxPoint x="430" y="160" as="sourcePoint" />
            <mxPoint x="470" y="130" as="targetPoint" />
          </mxGeometry>
        </mxCell>
        <mxCell id="81sYN-KSDIxfuRmOclKb-18" value="" style="endArrow=none;dashed=1;html=1;dashPattern=1 3;strokeWidth=2;rounded=0;" edge="1" parent="1">
          <mxGeometry width="50" height="50" relative="1" as="geometry">
            <mxPoint x="470" y="170" as="sourcePoint" />
            <mxPoint x="470" y="50" as="targetPoint" />
          </mxGeometry>
        </mxCell>
        <mxCell id="81sYN-KSDIxfuRmOclKb-19" value="Generate a New Random Number&lt;br&gt;&lt;div style=&quot;border-color: var(--border-color);&quot;&gt;&lt;span style=&quot;background-color: initial;&quot;&gt;Create By:&amp;nbsp;&lt;/span&gt;&lt;span style=&quot;background-color: initial;&quot;&gt;Phone,&amp;nbsp;&lt;/span&gt;&lt;span style=&quot;background-color: initial; border-color: var(--border-color);&quot;&gt;Laptop,&amp;nbsp;&lt;/span&gt;&lt;span style=&quot;background-color: initial; border-color: var(--border-color);&quot;&gt;PC,&amp;nbsp;&lt;/span&gt;&lt;span style=&quot;background-color: initial; border-color: var(--border-color);&quot;&gt;Cloud&lt;/span&gt;&lt;/div&gt;" style="text;html=1;strokeColor=none;fillColor=none;align=center;verticalAlign=middle;whiteSpace=wrap;rounded=0;" vertex="1" parent="1">
          <mxGeometry x="420" y="200" width="230" height="40" as="geometry" />
        </mxCell>
        <mxCell id="81sYN-KSDIxfuRmOclKb-21" value="&lt;div style=&quot;text-align: left;&quot;&gt;&lt;br&gt;&lt;/div&gt;" style="text;html=1;align=center;verticalAlign=middle;resizable=0;points=[];autosize=1;strokeColor=none;fillColor=none;" vertex="1" parent="1">
          <mxGeometry x="510" y="215" width="20" height="30" as="geometry" />
        </mxCell>
        <mxCell id="81sYN-KSDIxfuRmOclKb-33" value="" style="rounded=0;whiteSpace=wrap;html=1;fillColor=#e1d5e7;strokeColor=#9673a6;" vertex="1" parent="1">
          <mxGeometry x="120" y="680" width="640" height="40" as="geometry" />
        </mxCell>
        <mxCell id="81sYN-KSDIxfuRmOclKb-34" value="" style="rounded=0;whiteSpace=wrap;html=1;fillColor=#dae8fc;strokeColor=#6c8ebf;" vertex="1" parent="1">
          <mxGeometry x="120" y="800" width="640" height="40" as="geometry" />
        </mxCell>
        <mxCell id="81sYN-KSDIxfuRmOclKb-35" value="TURN&lt;br&gt;Chain" style="text;html=1;strokeColor=none;fillColor=none;align=center;verticalAlign=middle;whiteSpace=wrap;rounded=0;" vertex="1" parent="1">
          <mxGeometry x="130" y="685" width="60" height="30" as="geometry" />
        </mxCell>
        <mxCell id="81sYN-KSDIxfuRmOclKb-36" value="Bubble&lt;br&gt;Chain" style="text;html=1;strokeColor=none;fillColor=none;align=center;verticalAlign=middle;whiteSpace=wrap;rounded=0;" vertex="1" parent="1">
          <mxGeometry x="130" y="805" width="60" height="30" as="geometry" />
        </mxCell>
        <mxCell id="81sYN-KSDIxfuRmOclKb-37" value="Player" style="rounded=1;whiteSpace=wrap;html=1;fillColor=#fff2cc;strokeColor=#d6b656;" vertex="1" parent="1">
          <mxGeometry x="120" y="560" width="120" height="40" as="geometry" />
        </mxCell>
        <mxCell id="81sYN-KSDIxfuRmOclKb-38" value="Wallet" style="rounded=1;whiteSpace=wrap;html=1;fillColor=#f5f5f5;strokeColor=#666666;fontColor=#333333;" vertex="1" parent="1">
          <mxGeometry x="360" y="560" width="120" height="40" as="geometry" />
        </mxCell>
        <mxCell id="81sYN-KSDIxfuRmOclKb-39" value="" style="endArrow=classic;startArrow=classic;html=1;rounded=0;exitX=1;exitY=0.5;exitDx=0;exitDy=0;" edge="1" parent="1" source="81sYN-KSDIxfuRmOclKb-37" target="81sYN-KSDIxfuRmOclKb-38">
          <mxGeometry width="50" height="50" relative="1" as="geometry">
            <mxPoint x="390" y="540" as="sourcePoint" />
            <mxPoint x="440" y="490" as="targetPoint" />
          </mxGeometry>
        </mxCell>
        <mxCell id="81sYN-KSDIxfuRmOclKb-41" value="Interaction" style="edgeLabel;html=1;align=center;verticalAlign=middle;resizable=0;points=[];" connectable="0" vertex="1" parent="81sYN-KSDIxfuRmOclKb-39">
          <mxGeometry x="-0.2667" y="2" relative="1" as="geometry">
            <mxPoint x="16" y="-8" as="offset" />
          </mxGeometry>
        </mxCell>
        <mxCell id="81sYN-KSDIxfuRmOclKb-42" value="" style="endArrow=classic;html=1;rounded=0;exitX=0.5;exitY=1;exitDx=0;exitDy=0;entryX=0.469;entryY=0.025;entryDx=0;entryDy=0;entryPerimeter=0;" edge="1" parent="1" source="81sYN-KSDIxfuRmOclKb-38" target="81sYN-KSDIxfuRmOclKb-33">
          <mxGeometry width="50" height="50" relative="1" as="geometry">
            <mxPoint x="390" y="640" as="sourcePoint" />
            <mxPoint x="440" y="590" as="targetPoint" />
          </mxGeometry>
        </mxCell>
        <mxCell id="81sYN-KSDIxfuRmOclKb-43" value="" style="endArrow=classic;html=1;rounded=0;exitX=0.5;exitY=1;exitDx=0;exitDy=0;entryX=0.469;entryY=0.025;entryDx=0;entryDy=0;entryPerimeter=0;" edge="1" parent="1">
          <mxGeometry width="50" height="50" relative="1" as="geometry">
            <mxPoint x="420" y="719" as="sourcePoint" />
            <mxPoint x="420" y="800" as="targetPoint" />
          </mxGeometry>
        </mxCell>
        <mxCell id="81sYN-KSDIxfuRmOclKb-44" value="1. Signed transaction and &lt;br&gt;assets cross-chain transfer &lt;br&gt;to working address" style="text;html=1;align=center;verticalAlign=middle;resizable=0;points=[];autosize=1;strokeColor=none;fillColor=none;" vertex="1" parent="1">
          <mxGeometry x="420" y="733" width="170" height="60" as="geometry" />
        </mxCell>
        <mxCell id="81sYN-KSDIxfuRmOclKb-45" value="" style="endArrow=classic;html=1;rounded=0;entryX=0.469;entryY=-0.025;entryDx=0;entryDy=0;entryPerimeter=0;dashed=1;" edge="1" parent="1" target="81sYN-KSDIxfuRmOclKb-34">
          <mxGeometry width="50" height="50" relative="1" as="geometry">
            <mxPoint x="520" y="890" as="sourcePoint" />
            <mxPoint x="440" y="590" as="targetPoint" />
          </mxGeometry>
        </mxCell>
        <mxCell id="81sYN-KSDIxfuRmOclKb-48" value="2. Bind temporary private key to&amp;nbsp;working address&lt;br&gt;3. Auto-sign transaction with temporary&amp;nbsp;private key&lt;br&gt;4. Destroy&amp;nbsp;temporary private key after working session ended&lt;span style=&quot;&quot;&gt;&lt;br&gt;&lt;/span&gt;" style="rounded=0;whiteSpace=wrap;html=1;align=left;" vertex="1" parent="1">
          <mxGeometry x="520" y="890" width="340" height="50" as="geometry" />
        </mxCell>
        <mxCell id="81sYN-KSDIxfuRmOclKb-50" value="Staking" style="rounded=0;whiteSpace=wrap;html=1;" vertex="1" parent="1">
          <mxGeometry x="230" y="1179" width="120" height="60" as="geometry" />
        </mxCell>
        <mxCell id="81sYN-KSDIxfuRmOclKb-51" value="Micro-node" style="shape=cylinder3;whiteSpace=wrap;html=1;boundedLbl=1;backgroundOutline=1;size=15;" vertex="1" parent="1">
          <mxGeometry x="100" y="1179" width="70" height="60" as="geometry" />
        </mxCell>
        <mxCell id="81sYN-KSDIxfuRmOclKb-59" value="" style="edgeStyle=orthogonalEdgeStyle;rounded=0;orthogonalLoop=1;jettySize=auto;html=1;" edge="1" parent="1" source="81sYN-KSDIxfuRmOclKb-52" target="81sYN-KSDIxfuRmOclKb-53">
          <mxGeometry relative="1" as="geometry" />
        </mxCell>
        <mxCell id="81sYN-KSDIxfuRmOclKb-52" value="Waiting to be&lt;br&gt;Selected" style="ellipse;whiteSpace=wrap;html=1;" vertex="1" parent="1">
          <mxGeometry x="404" y="1169" width="120" height="80" as="geometry" />
        </mxCell>
        <mxCell id="81sYN-KSDIxfuRmOclKb-61" value="" style="edgeStyle=orthogonalEdgeStyle;rounded=0;orthogonalLoop=1;jettySize=auto;html=1;" edge="1" parent="1" source="81sYN-KSDIxfuRmOclKb-53" target="81sYN-KSDIxfuRmOclKb-60">
          <mxGeometry relative="1" as="geometry" />
        </mxCell>
        <mxCell id="81sYN-KSDIxfuRmOclKb-53" value="Networking" style="rounded=0;whiteSpace=wrap;html=1;" vertex="1" parent="1">
          <mxGeometry x="580" y="1179" width="120" height="60" as="geometry" />
        </mxCell>
        <mxCell id="81sYN-KSDIxfuRmOclKb-54" value="Dynamic Replacement&lt;br&gt;of Micro-nodes" style="ellipse;whiteSpace=wrap;html=1;" vertex="1" parent="1">
          <mxGeometry x="580" y="1060" width="120" height="80" as="geometry" />
        </mxCell>
        <mxCell id="81sYN-KSDIxfuRmOclKb-55" value="" style="endArrow=classic;startArrow=classic;html=1;rounded=0;entryX=0.5;entryY=1;entryDx=0;entryDy=0;exitX=0.5;exitY=0;exitDx=0;exitDy=0;" edge="1" parent="1" source="81sYN-KSDIxfuRmOclKb-53" target="81sYN-KSDIxfuRmOclKb-54">
          <mxGeometry width="50" height="50" relative="1" as="geometry">
            <mxPoint x="630" y="1190" as="sourcePoint" />
            <mxPoint x="680" y="1140" as="targetPoint" />
          </mxGeometry>
        </mxCell>
        <mxCell id="81sYN-KSDIxfuRmOclKb-56" value="" style="endArrow=classic;html=1;rounded=0;exitX=1;exitY=0.517;exitDx=0;exitDy=0;exitPerimeter=0;" edge="1" parent="1" source="81sYN-KSDIxfuRmOclKb-51">
          <mxGeometry width="50" height="50" relative="1" as="geometry">
            <mxPoint x="390" y="1240" as="sourcePoint" />
            <mxPoint x="230" y="1210" as="targetPoint" />
          </mxGeometry>
        </mxCell>
        <mxCell id="81sYN-KSDIxfuRmOclKb-57" value="" style="endArrow=classic;html=1;rounded=0;exitX=1;exitY=0.517;exitDx=0;exitDy=0;exitPerimeter=0;entryX=0;entryY=0.5;entryDx=0;entryDy=0;" edge="1" parent="1" target="81sYN-KSDIxfuRmOclKb-52">
          <mxGeometry width="50" height="50" relative="1" as="geometry">
            <mxPoint x="350" y="1208.5" as="sourcePoint" />
            <mxPoint x="400" y="1209" as="targetPoint" />
          </mxGeometry>
        </mxCell>
        <mxCell id="81sYN-KSDIxfuRmOclKb-64" value="" style="edgeStyle=orthogonalEdgeStyle;rounded=0;orthogonalLoop=1;jettySize=auto;html=1;" edge="1" parent="1" source="81sYN-KSDIxfuRmOclKb-60" target="81sYN-KSDIxfuRmOclKb-63">
          <mxGeometry relative="1" as="geometry" />
        </mxCell>
        <mxCell id="81sYN-KSDIxfuRmOclKb-60" value="Participate in Consensus" style="ellipse;whiteSpace=wrap;html=1;" vertex="1" parent="1">
          <mxGeometry x="760" y="1169" width="120" height="80" as="geometry" />
        </mxCell>
        <mxCell id="81sYN-KSDIxfuRmOclKb-66" value="" style="edgeStyle=orthogonalEdgeStyle;rounded=0;orthogonalLoop=1;jettySize=auto;html=1;" edge="1" parent="1" source="81sYN-KSDIxfuRmOclKb-63" target="81sYN-KSDIxfuRmOclKb-65">
          <mxGeometry relative="1" as="geometry" />
        </mxCell>
        <mxCell id="81sYN-KSDIxfuRmOclKb-63" value="Receive Reward" style="ellipse;whiteSpace=wrap;html=1;" vertex="1" parent="1">
          <mxGeometry x="760" y="1300" width="120" height="80" as="geometry" />
        </mxCell>
        <mxCell id="81sYN-KSDIxfuRmOclKb-68" value="" style="edgeStyle=orthogonalEdgeStyle;rounded=0;orthogonalLoop=1;jettySize=auto;html=1;" edge="1" parent="1" source="81sYN-KSDIxfuRmOclKb-65" target="81sYN-KSDIxfuRmOclKb-67">
          <mxGeometry relative="1" as="geometry" />
        </mxCell>
        <mxCell id="81sYN-KSDIxfuRmOclKb-65" value="Roll-up Transaction&lt;br&gt;and Settle" style="ellipse;whiteSpace=wrap;html=1;" vertex="1" parent="1">
          <mxGeometry x="580" y="1300" width="120" height="80" as="geometry" />
        </mxCell>
        <mxCell id="81sYN-KSDIxfuRmOclKb-67" value="Release Bubble" style="ellipse;whiteSpace=wrap;html=1;" vertex="1" parent="1">
          <mxGeometry x="404" y="1300" width="120" height="80" as="geometry" />
        </mxCell>
        <mxCell id="81sYN-KSDIxfuRmOclKb-69" value="" style="endArrow=none;html=1;rounded=0;" edge="1" parent="1">
          <mxGeometry width="50" height="50" relative="1" as="geometry">
            <mxPoint x="69.66" y="1600" as="sourcePoint" />
            <mxPoint x="759.66" y="1600" as="targetPoint" />
          </mxGeometry>
        </mxCell>
        <mxCell id="81sYN-KSDIxfuRmOclKb-70" value="" style="endArrow=none;html=1;rounded=0;" edge="1" parent="1">
          <mxGeometry width="50" height="50" relative="1" as="geometry">
            <mxPoint x="69.66" y="1610" as="sourcePoint" />
            <mxPoint x="69.66" y="1590" as="targetPoint" />
          </mxGeometry>
        </mxCell>
        <mxCell id="81sYN-KSDIxfuRmOclKb-71" value="" style="endArrow=none;html=1;rounded=0;" edge="1" parent="1">
          <mxGeometry width="50" height="50" relative="1" as="geometry">
            <mxPoint x="519.66" y="1610" as="sourcePoint" />
            <mxPoint x="519.66" y="1590" as="targetPoint" />
          </mxGeometry>
        </mxCell>
        <mxCell id="81sYN-KSDIxfuRmOclKb-72" value="" style="endArrow=none;html=1;rounded=0;" edge="1" parent="1">
          <mxGeometry width="50" height="50" relative="1" as="geometry">
            <mxPoint x="759.66" y="1610" as="sourcePoint" />
            <mxPoint x="759.66" y="1590" as="targetPoint" />
          </mxGeometry>
        </mxCell>
        <mxCell id="81sYN-KSDIxfuRmOclKb-73" value="" style="endArrow=classic;html=1;rounded=0;" edge="1" parent="1">
          <mxGeometry width="50" height="50" relative="1" as="geometry">
            <mxPoint x="69.66" y="1530" as="sourcePoint" />
            <mxPoint x="69.66" y="1580" as="targetPoint" />
          </mxGeometry>
        </mxCell>
        <mxCell id="81sYN-KSDIxfuRmOclKb-74" value="Create" style="text;html=1;strokeColor=none;fillColor=none;align=center;verticalAlign=middle;whiteSpace=wrap;rounded=0;" vertex="1" parent="1">
          <mxGeometry x="39.66" y="1500" width="60" height="30" as="geometry" />
        </mxCell>
        <mxCell id="81sYN-KSDIxfuRmOclKb-75" value="" style="endArrow=classic;html=1;rounded=0;" edge="1" parent="1">
          <mxGeometry width="50" height="50" relative="1" as="geometry">
            <mxPoint x="519.66" y="1530" as="sourcePoint" />
            <mxPoint x="519.66" y="1580" as="targetPoint" />
          </mxGeometry>
        </mxCell>
        <mxCell id="81sYN-KSDIxfuRmOclKb-76" value="Pre-release" style="text;html=1;strokeColor=none;fillColor=none;align=center;verticalAlign=middle;whiteSpace=wrap;rounded=0;" vertex="1" parent="1">
          <mxGeometry x="484.83000000000004" y="1500" width="70.34" height="30" as="geometry" />
        </mxCell>
        <mxCell id="81sYN-KSDIxfuRmOclKb-77" value="" style="endArrow=classic;html=1;rounded=0;dashed=1;exitX=0.5;exitY=1;exitDx=0;exitDy=0;" edge="1" parent="1" source="81sYN-KSDIxfuRmOclKb-78">
          <mxGeometry width="50" height="50" relative="1" as="geometry">
            <mxPoint x="689.66" y="1530" as="sourcePoint" />
            <mxPoint x="689.83" y="1600" as="targetPoint" />
          </mxGeometry>
        </mxCell>
        <mxCell id="81sYN-KSDIxfuRmOclKb-78" value="Start Destroying" style="text;html=1;strokeColor=none;fillColor=none;align=center;verticalAlign=middle;whiteSpace=wrap;rounded=0;" vertex="1" parent="1">
          <mxGeometry x="654.83" y="1490" width="70.34" height="30" as="geometry" />
        </mxCell>
        <mxCell id="81sYN-KSDIxfuRmOclKb-79" value="" style="strokeWidth=1;html=1;shape=mxgraph.flowchart.annotation_2;align=left;labelPosition=right;pointerEvents=1;direction=north;dashed=1;" vertex="1" parent="1">
          <mxGeometry x="690" y="1600" width="70" height="30" as="geometry" />
        </mxCell>
        <mxCell id="81sYN-KSDIxfuRmOclKb-80" value="20 Blocks" style="text;html=1;strokeColor=none;fillColor=none;align=center;verticalAlign=middle;whiteSpace=wrap;rounded=0;" vertex="1" parent="1">
          <mxGeometry x="689.83" y="1630" width="70.34" height="30" as="geometry" />
        </mxCell>
        <mxCell id="81sYN-KSDIxfuRmOclKb-81" value="" style="endArrow=classic;html=1;rounded=0;" edge="1" parent="1">
          <mxGeometry width="50" height="50" relative="1" as="geometry">
            <mxPoint x="759.9999999999999" y="1530" as="sourcePoint" />
            <mxPoint x="759.9999999999999" y="1580" as="targetPoint" />
          </mxGeometry>
        </mxCell>
        <mxCell id="81sYN-KSDIxfuRmOclKb-82" value="Release" style="text;html=1;strokeColor=none;fillColor=none;align=center;verticalAlign=middle;whiteSpace=wrap;rounded=0;" vertex="1" parent="1">
          <mxGeometry x="725" y="1500" width="70.34" height="30" as="geometry" />
        </mxCell>
        <mxCell id="81sYN-KSDIxfuRmOclKb-85" value="" style="strokeWidth=2;html=1;shape=mxgraph.flowchart.annotation_2;align=left;labelPosition=right;pointerEvents=1;dashed=1;direction=north;" vertex="1" parent="1">
          <mxGeometry x="70" y="1635" width="450" height="50" as="geometry" />
        </mxCell>
        <mxCell id="81sYN-KSDIxfuRmOclKb-86" value="" style="strokeWidth=2;html=1;shape=mxgraph.flowchart.annotation_2;align=left;labelPosition=right;pointerEvents=1;dashed=1;direction=north;" vertex="1" parent="1">
          <mxGeometry x="520" y="1635" width="240" height="50" as="geometry" />
        </mxCell>
        <mxCell id="81sYN-KSDIxfuRmOclKb-87" value="Active Stage" style="text;html=1;strokeColor=none;fillColor=none;align=center;verticalAlign=middle;whiteSpace=wrap;rounded=0;" vertex="1" parent="1">
          <mxGeometry x="259.83000000000004" y="1685" width="70.34" height="30" as="geometry" />
        </mxCell>
        <mxCell id="81sYN-KSDIxfuRmOclKb-88" value="Pre-release Stage" style="text;html=1;strokeColor=none;fillColor=none;align=center;verticalAlign=middle;whiteSpace=wrap;rounded=0;" vertex="1" parent="1">
          <mxGeometry x="587.4200000000001" y="1685" width="105.17" height="30" as="geometry" />
        </mxCell>
      </root>
    </mxGraphModel>
  </diagram>
</mxfile>
